<svg width="450" height="450" viewBox="0 0 450 450" fill="none" xmlns="http://www.w3.org/2000/svg">
<g clip-path="url(#clip0_198_2)">
<g clip-path="url(#clip1_198_2)">
<path d="M272.181 417.924C257.484 417.914 242.798 418.122 228.101 417.864C209.032 417.528 197.05 405.005 197.02 385.672C196.991 358.548 197.03 331.423 197.109 304.299C197.168 284.302 209.506 271.404 229.365 271.186C254.425 270.918 279.495 271.156 304.555 271.057C309.44 271.037 314.375 270.879 319.182 270.067C334.264 267.523 341.557 258.722 343.739 243.171C346.206 225.54 346.038 207.246 344.746 189.407C342.92 164.075 328.381 154.106 308.315 155.155C300.271 155.571 292.178 155.037 284.124 155.373C267.641 156.076 260.692 163.441 260.485 180.23C260.347 191.724 260.613 203.227 260.435 214.72C260.159 231.846 252.056 240.102 235.227 240.349C221.399 240.547 207.571 240.508 193.744 240.369C178.208 240.221 170.026 231.727 169.789 215.571C169.631 204.959 169.917 194.337 169.651 183.735C169.286 169.272 163.502 161.6 149.634 159.402C139.182 157.749 128.443 157.709 117.813 157.492C101.685 157.175 85.5381 157.7 69.4203 157.185C50.0651 156.571 38.4184 144.355 38.1815 124.606C37.9052 103.996 37.9545 83.3554 38.2605 62.7252C38.5566 43.2828 50.677 30.681 69.7657 30.3246C91.6575 29.9187 113.559 29.8692 135.451 30.3147C155.29 30.7107 167.371 43.7481 167.598 64.1903C167.795 81.2865 167.637 98.3826 167.766 115.489C167.953 141.91 177.428 151.681 203.416 151.859C213.178 151.928 223.196 152.532 232.671 150.651C251.138 146.998 256.645 137.98 256.576 122.587C256.517 110.806 256.951 99.0063 257.445 87.236C257.998 73.9609 265.854 65.8435 278.764 65.5762C294.023 65.2693 309.302 65.2693 324.571 65.5564C339.179 65.8336 347.351 74.4064 347.795 89.1861C348.121 99.7884 348.299 110.4 348.763 121.003C349.69 141.811 358.514 152.324 378.55 153.997C395.734 155.443 413.056 155.254 430.319 155.452C454.964 155.73 464.864 165.718 464.923 190.922C464.963 208.018 465.042 225.114 464.973 242.22C464.894 262.524 453.938 273.938 433.991 274.373C416.145 274.769 398.241 274.175 380.445 275.294C356.451 276.799 347.855 286.48 347.499 311.268C347.144 335.73 347.42 360.211 347.381 384.672C347.351 404.916 335.241 417.617 315.392 417.904C300.992 418.102 286.581 417.934 272.181 417.924Z" stroke="white" stroke-opacity="0.2"/>
<path d="M470.679 409.68C462.519 409.68 454.349 409.97 446.199 409.62C431.719 408.99 424.949 401.92 424.759 387.18C424.559 372.02 424.589 356.84 424.839 341.68C425.079 327.61 431.429 320.54 445.009 320.16C462.479 319.67 479.979 319.73 497.459 320.1C508.769 320.34 516.139 327.68 516.439 339.14C516.899 356.08 516.929 373.04 516.519 389.98C516.229 401.72 508.559 409.13 496.909 409.61C488.179 409.97 479.419 409.68 470.679 409.68Z" stroke="white" stroke-opacity="0.2"/>
</g>
</g>
<defs>
<clipPath id="clip0_198_2">
<rect width="450" height="450" fill="white"/>
</clipPath>
<clipPath id="clip1_198_2">
<rect width="482.27" height="391.95" fill="white" transform="translate(35 29)"/>
</clipPath>
</defs>
</svg>
