<svg width="450" height="450" viewBox="0 0 450 450" fill="none" xmlns="http://www.w3.org/2000/svg">
<g clip-path="url(#clip0_66_1097)">
<g clip-path="url(#clip1_66_1097)">
<path d="M344.77 244.34L345.265 244.41C344.152 252.324 341.725 258.58 337.604 263.186C333.477 267.798 327.696 270.704 319.973 272.003C315.061 272.83 310.028 272.99 305.072 273.01C294.91 273.05 284.751 273.036 274.593 273.021C259.359 273 244.128 272.978 228.895 273.14C218.945 273.249 210.925 276.522 205.386 282.221C199.845 287.921 196.739 296.095 196.71 306.091C196.63 333.491 196.59 360.89 196.62 388.289C196.635 397.95 199.643 405.862 204.991 411.399C210.338 416.935 218.068 420.142 227.619 420.31C237.755 420.487 247.884 420.446 258.02 420.405C262.768 420.386 267.517 420.367 272.27 420.37C276.678 420.373 281.085 420.391 285.492 420.408C295.678 420.449 305.862 420.49 316.043 420.35C325.991 420.207 333.949 416.965 339.425 411.278C344.902 405.59 347.945 397.404 347.96 387.279C347.973 379.048 347.951 370.812 347.929 362.574C347.884 346.091 347.84 329.601 348.08 313.123C348.26 300.565 350.532 291.706 355.919 285.803C361.311 279.895 369.727 277.054 381.928 276.291C393.366 275.574 404.866 275.553 416.35 275.531C422.977 275.519 429.598 275.506 436.199 275.36C446.212 275.142 453.899 272.18 459.094 266.799C464.29 261.417 467.06 253.546 467.1 243.378C467.155 229.738 467.117 216.104 467.079 202.47C467.068 198.834 467.058 195.198 467.05 191.561C467.02 178.879 464.504 170.154 459.004 164.553C453.506 158.953 444.919 156.369 432.484 156.23C429.144 156.192 425.8 156.168 422.454 156.144C408.295 156.042 394.099 155.941 379.998 154.758C369.77 153.907 362.32 150.797 357.316 145.176C352.319 139.562 349.833 131.52 349.36 120.952C349.05 113.891 348.866 106.821 348.683 99.7585C348.587 96.105 348.492 92.4533 348.38 88.8054L348.38 88.805C348.158 81.4272 346.004 75.6633 342.139 71.7108C338.276 67.7607 332.644 65.5581 325.34 65.4199C309.877 65.13 294.403 65.13 278.95 65.4399M344.77 244.34L278.94 64.94M344.77 244.34L345.265 244.409C347.772 226.551 347.6 208.033 346.288 189.994M344.77 244.34L346.288 189.994M278.95 65.4399L278.94 64.94M278.95 65.4399C278.95 65.4399 278.95 65.4399 278.95 65.4399L278.94 64.94M278.95 65.4399C272.515 65.5728 267.388 67.6528 263.801 71.3029C260.212 74.9553 258.115 80.2297 257.839 86.841C257.339 98.7305 256.9 110.64 256.96 122.527V122.528C256.995 130.354 255.61 136.653 251.784 141.464C247.956 146.276 241.752 149.514 232.337 151.37M278.94 64.94C265.86 65.21 257.9 73.41 257.34 86.82C256.84 98.71 256.4 110.63 256.46 122.53C256.53 138.08 250.95 147.19 232.24 150.88M232.337 151.37L232.24 150.88M232.337 151.37C232.337 151.37 232.337 151.37 232.337 151.371L232.24 150.88M232.337 151.37C224.373 152.947 216.029 152.807 207.827 152.671C206.075 152.641 204.33 152.612 202.596 152.6C189.39 152.51 180.238 149.993 174.38 144.021C168.526 138.053 166.075 128.746 165.98 115.364C165.922 107.643 165.921 99.9346 165.921 92.2293C165.921 82.6686 165.921 73.1129 165.81 63.5455C165.696 53.3176 162.61 44.9931 157.113 39.1797C151.618 33.3692 143.669 30.0177 133.73 29.8199L133.73 29.8199C111.557 29.37 89.3737 29.42 67.199 29.8299M232.24 150.88C224.333 152.445 216.054 152.307 207.854 152.171C206.097 152.141 204.344 152.112 202.6 152.1C176.27 151.92 166.67 142.05 166.48 115.36C166.422 107.65 166.422 99.9427 166.421 92.2361C166.421 82.6696 166.421 73.1048 166.31 63.54C166.08 42.89 153.84 29.72 133.74 29.32L35.7697 62.0674C35.9182 52.3509 39.0277 44.3886 44.4483 38.8135C49.8676 33.2397 57.6397 30.0078 67.199 29.8299M67.199 29.8299L67.1898 29.33L67.199 29.8299ZM234.823 240.99C220.818 241.19 206.813 241.15 192.805 241.01L192.805 241.01C185.022 240.936 179.161 238.78 175.212 234.701C171.259 230.619 169.149 224.535 169.03 216.453C168.959 211.703 168.977 206.927 168.995 202.147C169.017 196.187 169.039 190.22 168.89 184.287L168.39 184.3L168.89 184.287C168.703 176.926 167.133 171.21 163.769 167.049C160.399 162.881 155.29 160.348 148.188 159.226L148.188 159.226C138.622 157.718 128.823 157.534 119.121 157.353C118.039 157.332 116.959 157.312 115.88 157.29L115.88 157.29C108.564 157.147 101.244 157.174 93.9323 157.201C93.0712 157.204 92.2102 157.207 91.3494 157.21C83.1756 157.237 75.011 157.24 66.8557 156.98C57.154 156.673 49.4352 153.471 44.1117 147.927C38.787 142.382 35.8086 134.442 35.6897 124.564L35.6897 124.563C35.4098 103.749 35.4598 82.9034 35.7697 62.0676L234.83 241.49M234.823 240.99L234.83 241.49M234.823 240.99C234.823 240.99 234.823 240.99 234.822 240.99L234.83 241.49M234.823 240.99C243.274 240.866 249.44 238.739 253.532 234.588C257.627 230.435 259.731 224.172 259.87 215.592M234.83 241.49C251.88 241.24 260.09 232.9 260.37 215.6M259.87 215.592C259.87 215.592 259.87 215.592 259.87 215.592L260.37 215.6M259.87 215.592C259.96 209.793 259.937 203.99 259.91 198.182L259.906 197.371C259.879 191.835 259.853 186.293 259.92 180.754L259.92 180.754C260.026 172.218 261.849 165.967 265.849 161.766C269.85 157.563 275.938 155.508 284.349 155.15L284.349 155.15C288.265 154.987 292.188 155.026 296.096 155.065L296.633 155.07C300.723 155.11 304.796 155.14 308.854 154.931M259.87 215.592L260.37 215.6M260.37 215.6L308.854 154.931M308.854 154.931C319.103 154.396 328.01 156.665 334.592 162.358M308.854 154.931L334.592 162.358M346.288 189.994C345.357 177.11 341.176 168.053 334.592 162.358M346.288 189.994L334.592 162.358" stroke="white" stroke-opacity="0.2"/>
<path d="M425.259 387.173L425.259 387.174C425.353 394.476 427.076 399.784 430.481 403.346C433.885 406.906 439.051 408.808 446.22 409.12C446.22 409.12 446.22 409.12 446.22 409.12L446.199 409.62C451.807 409.861 457.425 409.799 463.043 409.736C465.589 409.708 468.134 409.68 470.679 409.68C473.375 409.68 476.072 409.708 478.771 409.735C484.82 409.797 490.872 409.859 496.909 409.61C508.559 409.13 516.229 401.72 516.519 389.98L425.259 387.173ZM425.259 387.173C425.059 372.019 425.089 356.844 425.339 341.689L425.259 387.173ZM515.939 339.154C516.399 356.085 516.429 373.037 516.019 389.968L425.339 341.688C425.458 334.718 427.089 329.574 430.288 326.126C433.481 322.684 438.314 320.848 445.023 320.66L445.023 320.66C462.482 320.17 479.974 320.23 497.448 320.6C502.995 320.718 507.535 322.573 510.724 325.766C513.913 328.958 515.792 333.529 515.939 339.153L515.939 339.154Z" stroke="white" stroke-opacity="0.2"/>
</g>
</g>
<defs>
<clipPath id="clip0_66_1097">
<rect width="450" height="450" fill="white"/>
</clipPath>
<clipPath id="clip1_66_1097">
<rect width="482.27" height="391.95" fill="white" transform="translate(35 29)"/>
</clipPath>
</defs>
</svg>
